<svg width="122" height="38" viewBox="0 0 122 38" fill="none" xmlns="http://www.w3.org/2000/svg">
<g filter="url(#filter0_dd_1689_1340)">
<path d="M4.646 0.852H11.66V11.646H12.626L20.9 0.852H29.552L19.136 14.166L30.602 30H21.782L12.752 17.484H11.66V30H4.646V0.852ZM33.4701 0.852H53.5881V6.648H40.4841V12.024H52.6641V17.862H40.4841V24.162H53.5881V30H33.4701V0.852ZM57.7084 0.852H68.5444L79.0024 20.256V0.852H85.9744V30H76.5244L64.7224 9.336V30H57.7084V0.852ZM101.616 30C99.3758 30 97.5138 29.846 96.0298 29.538C94.5738 29.202 93.4118 28.586 92.5438 27.69C91.6758 26.794 91.0598 25.534 90.6958 23.91C90.3598 22.286 90.1918 20.172 90.1918 17.568V12.612C90.1918 10.204 90.3738 8.216 90.7378 6.648C91.1018 5.08 91.7178 3.848 92.5858 2.952C93.4538 2.028 94.6158 1.398 96.0718 1.062C97.5278 0.697999 99.3478 0.515999 101.532 0.515999H105.144C107.44 0.515999 109.358 0.697999 110.898 1.062C112.438 1.398 113.656 2.014 114.552 2.91C115.448 3.806 116.078 5.038 116.442 6.606C116.834 8.174 117.03 10.176 117.03 12.612V17.568C117.03 20.144 116.876 22.244 116.568 23.868C116.26 25.492 115.686 26.766 114.846 27.69C114.006 28.586 112.844 29.202 111.36 29.538C109.876 29.846 107.958 30 105.606 30H101.616ZM102.372 6.816C101.42 6.816 100.608 6.914 99.9358 7.11C99.2918 7.278 98.7738 7.586 98.3818 8.034C97.9898 8.454 97.6958 9.042 97.4998 9.798C97.3318 10.554 97.2478 11.52 97.2478 12.696V17.316C97.2478 18.492 97.3318 19.486 97.4998 20.298C97.6678 21.11 97.9478 21.768 98.3398 22.272C98.7318 22.748 99.2498 23.098 99.8938 23.322C100.566 23.546 101.392 23.658 102.372 23.658H104.766C105.774 23.658 106.6 23.546 107.244 23.322C107.916 23.098 108.448 22.734 108.84 22.23C109.26 21.726 109.554 21.068 109.722 20.256C109.89 19.444 109.974 18.436 109.974 17.232V12.78C109.974 11.604 109.876 10.638 109.68 9.882C109.512 9.098 109.218 8.482 108.798 8.034C108.406 7.586 107.874 7.278 107.202 7.11C106.558 6.914 105.746 6.816 104.766 6.816H102.372Z" fill="url(#paint0_linear_1689_1340)"/>
</g>
<defs>
<filter id="filter0_dd_1689_1340" x="0.645996" y="0.515991" width="120.384" height="37.484" filterUnits="userSpaceOnUse" color-interpolation-filters="sRGB">
<feFlood flood-opacity="0" result="BackgroundImageFix"/>
<feColorMatrix in="SourceAlpha" type="matrix" values="0 0 0 0 0 0 0 0 0 0 0 0 0 0 0 0 0 0 127 0" result="hardAlpha"/>
<feOffset dy="4"/>
<feGaussianBlur stdDeviation="2"/>
<feComposite in2="hardAlpha" operator="out"/>
<feColorMatrix type="matrix" values="0 0 0 0 0 0 0 0 0 0 0 0 0 0 0 0 0 0 0.42 0"/>
<feBlend mode="normal" in2="BackgroundImageFix" result="effect1_dropShadow_1689_1340"/>
<feColorMatrix in="SourceAlpha" type="matrix" values="0 0 0 0 0 0 0 0 0 0 0 0 0 0 0 0 0 0 127 0" result="hardAlpha"/>
<feOffset dx="2"/>
<feComposite in2="hardAlpha" operator="out"/>
<feColorMatrix type="matrix" values="0 0 0 0 1 0 0 0 0 1 0 0 0 0 1 0 0 0 1 0"/>
<feBlend mode="normal" in2="effect1_dropShadow_1689_1340" result="effect2_dropShadow_1689_1340"/>
<feBlend mode="normal" in="SourceGraphic" in2="effect2_dropShadow_1689_1340" result="shape"/>
</filter>
<linearGradient id="paint0_linear_1689_1340" x1="61.2145" y1="7.1875" x2="61.2145" y2="40" gradientUnits="userSpaceOnUse">
<stop offset="0.181771" stop-color="#FFE600"/>
<stop offset="1"/>
</linearGradient>
</defs>
</svg>
