<svg width="752" height="687" viewBox="0 0 752 687" fill="none" xmlns="http://www.w3.org/2000/svg">
<path d="M193.199 2.33356C150.266 9.13354 109.333 28.8669 73.4662 60.2002C58.3995 73.4002 40.6662 98.2002 26.9328 125.4C0.39951 177.667 -6.80049 231.534 6.79951 275.8C14.6662 301.4 33.8662 329.8 53.1995 344.334C76.3995 361.8 106.933 367.134 134.133 358.467C149.333 353.534 154.799 349.8 177.999 329.134C237.6 275.8 277.066 227.667 300.666 179.667C311.866 156.867 316.533 144.067 322.933 119.534C326.799 104.2 327.333 100.467 327.199 85.6669C327.066 71.2669 326.533 67.5335 323.466 58.3336C312.133 25.1335 288.933 8.2002 245.733 1.8002C233.066 -0.199799 207.466 0.200195 193.199 2.33356Z" fill="white"/>
<path d="M502 2.46692C474.933 7.40024 461.6 13.4002 448 27.0002C420.133 54.6003 417.6 93.0002 439.6 153C450.667 183.134 474.4 222.467 500.667 254.067C525.467 283.934 580.933 337.934 598.8 349.667C627.2 368.067 667.467 366.467 697.067 345.667C716.933 331.8 736.133 304.2 745.067 276.734C752.8 253.267 754 217.134 748 189C739.867 150.334 717.6 104.467 692.133 73.9336C671.733 49.5336 630 22.7336 593.333 10.6003C564.8 1.13358 527.867 -2.19977 502 2.46692Z" fill="white"/>
<path d="M82.3994 388.333C60.7994 391 43.9994 398.867 29.5994 413.133C18.3994 424.333 13.3327 433.8 9.86603 451.133C0.132699 499.4 36.266 579.267 92.1327 633C117.999 657.667 147.599 673.133 187.733 682.6C202.133 685.933 205.466 686.2 230.666 686.333C255.333 686.333 259.066 686.067 268.533 683.267C304.133 673 326.799 647.533 331.199 613C332.799 601.267 325.733 581.8 312.799 561.8C306.533 552.067 268.799 504.733 249.466 482.333C234.133 464.6 208.266 438.733 195.999 428.733C157.599 397.667 118.533 383.8 82.3994 388.333Z" fill="white"/>
<path d="M641.199 388.333C605.199 392.733 569.732 413.4 530.799 452.467C511.865 471.267 499.465 485.667 468.665 523.667C435.999 564.067 426.665 579 421.999 599.4C420.265 607 420.265 609.267 421.865 617.933C428.265 650.867 449.465 673.4 483.332 683.267C492.932 686.067 496.665 686.333 521.332 686.2C544.399 686.2 550.665 685.667 561.865 683.267C580.665 679 596.932 673.4 615.465 664.333C635.332 654.6 648.532 644.867 666.799 626.2C719.999 571.4 751.999 496.2 741.999 449.133C737.065 425.8 723.732 408.867 701.465 397.8C685.465 389.667 661.065 385.933 641.199 388.333Z" fill="white"/>
</svg>
