<svg width="46" height="42" viewBox="0 0 46 42" fill="none" xmlns="http://www.w3.org/2000/svg">
<g id="Logo">
<path id="Vector" d="M26.6595 7.91951C25.6474 5.04361 26.4908 3.04068 27.0391 2.39873C29.4683 -1.29894 35.2209 0.0876867 37.7936 1.2432C43.3606 3.70831 45.2585 9.54586 45.5116 12.1565C46.4225 17.0867 43.445 20.2879 41.8424 21.2722C39.1095 22.7102 36.4019 21.101 35.3897 20.1167L31.847 16.6502C28.5068 12.9525 26.9969 9.28906 26.6595 7.91951Z" fill="white"/>
<path id="Vector_2" d="M9.45244 23.9684C4.18906 22.2223 2.02973 25.0384 1.60798 26.6647C1.20311 27.8972 1.43928 29.4037 1.60798 30.0028C2.41773 34.0086 5.23498 37.3211 6.54239 38.4766C9.37651 41.1472 13.8807 41.6436 15.7786 41.558C19.2201 40.9417 20.3335 38.6478 20.46 37.5779C20.8648 35.9345 19.2791 33.555 18.4356 32.5706L15.9051 29.4892C13.6783 26.3052 10.6755 24.482 9.45244 23.9684Z" fill="white"/>
<path id="Vector_3" d="M7.68116 21.9141C5.1507 22.2222 3.1685 20.245 2.49371 19.2179C0.975427 16.8555 0.764555 14.4674 0.848903 13.5687C1.45622 7.3032 5.3194 3.34019 7.17505 2.14188C10.9202 -0.323235 15.0617 -0.0835735 16.6644 0.344397C20.1058 1.37153 20.5444 4.45292 20.3335 5.86522C19.3213 11.9253 14.4291 17.292 12.1095 19.2179C10.0851 21.2722 8.31377 21.8713 7.68116 21.9141Z" fill="white"/>
<path id="Vector_4" d="M28.5576 32.0569L32.3533 27.5632C36.6045 22.9411 40.8725 23.2407 42.4752 23.9682C47.2324 26.2279 44.7948 32.1852 42.9813 34.8815C40.3496 39.4008 35.8959 41.1298 33.9981 41.4294C29.6457 42.2511 27.2924 40.2311 26.6597 39.1183C25.9512 37.9885 26.0271 36.4221 26.1536 35.7802C26.4573 34.2395 27.8828 32.656 28.5576 32.0569Z" fill="white"/>
</g>
</svg>
